<svg width="693" height="420" viewBox="0 0 693 420" fill="none" xmlns="http://www.w3.org/2000/svg">
<g opacity="0.04">
<rect width="693" height="420" rx="2" fill="#FAFAFA"/>
<rect x="0.5" y="0.5" width="692" height="419" rx="1.5" stroke="white" stroke-opacity="0.1"/>
<path opacity="0.5" d="M601.955 288.273C601.51 287.973 600.977 287.857 600.475 287.951C599.973 288.044 599.542 288.339 599.276 288.772L586.596 308.754L566.513 294.781C566.072 294.474 565.54 294.349 565.035 294.435C564.53 294.521 564.093 294.811 563.821 295.24C563.548 295.669 563.463 296.202 563.583 296.723C563.703 297.244 564.018 297.709 564.46 298.017L584.542 311.99L568.225 337.704L548.143 323.731C547.701 323.423 547.169 323.299 546.664 323.385C546.159 323.471 545.722 323.76 545.45 324.189C545.178 324.618 545.092 325.152 545.212 325.673C545.332 326.194 545.648 326.659 546.09 326.966L566.172 340.939L553.778 360.469C553.506 360.898 553.42 361.432 553.54 361.953C553.66 362.474 553.976 362.939 554.418 363.247C554.86 363.554 555.392 363.678 555.897 363.592C556.402 363.506 556.838 363.217 557.11 362.788L569.504 343.258L595.988 361.685L583.594 381.215C583.322 381.644 583.236 382.178 583.356 382.699C583.476 383.22 583.792 383.685 584.234 383.992C584.676 384.3 585.208 384.424 585.713 384.338C586.218 384.252 586.654 383.963 586.927 383.534L599.32 364.004L619.912 378.331C620.354 378.639 620.886 378.763 621.391 378.677C621.896 378.591 622.332 378.302 622.605 377.873C622.877 377.444 622.963 376.91 622.843 376.389C622.723 375.868 622.407 375.403 621.965 375.096L601.373 360.768L617.691 335.054L637.959 349.157C638.178 349.309 638.421 349.418 638.675 349.477C638.929 349.537 639.188 349.545 639.438 349.503C639.688 349.46 639.924 349.367 640.133 349.229C640.341 349.091 640.517 348.911 640.652 348.698C640.787 348.486 640.877 348.245 640.918 347.991C640.959 347.736 640.95 347.473 640.89 347.215C640.831 346.957 640.723 346.71 640.572 346.488C640.422 346.266 640.231 346.073 640.013 345.921L619.744 331.818L632.425 311.836C632.565 311.622 632.659 311.378 632.703 311.119C632.746 310.86 632.737 310.591 632.676 310.328C632.615 310.065 632.503 309.814 632.348 309.589C632.193 309.364 631.996 309.17 631.771 309.019C631.326 308.719 630.794 308.603 630.291 308.696C629.789 308.79 629.358 309.085 629.092 309.518L616.412 329.5L589.928 311.073L602.608 291.09C602.749 290.876 602.843 290.632 602.886 290.373C602.93 290.114 602.92 289.845 602.859 289.582C602.799 289.319 602.687 289.068 602.532 288.843C602.376 288.618 602.18 288.424 601.955 288.273ZM587.324 278.123C585.031 276.528 582.27 275.82 579.662 276.19C577.054 276.561 574.762 277.997 573.378 280.179C571.993 282.361 571.616 285.13 572.3 287.791C572.984 290.453 574.675 292.849 576.967 294.444C579.259 296.039 582.024 296.743 584.632 296.372C587.24 296.001 589.532 294.565 590.916 292.383C592.301 290.201 592.678 287.432 591.994 284.771C591.31 282.109 589.616 279.718 587.324 278.123ZM617.14 298.869C614.848 297.274 612.086 296.566 609.478 296.936C606.87 297.307 604.579 298.743 603.194 300.925C601.809 303.107 601.432 305.876 602.116 308.537C602.8 311.199 604.491 313.595 606.783 315.19C609.076 316.785 611.84 317.488 614.449 317.117C617.057 316.747 619.348 315.311 620.733 313.129C622.117 310.947 622.494 308.178 621.81 305.517C621.126 302.855 619.432 300.464 617.14 298.869ZM640.496 317.383C640.164 317.153 639.779 317.025 639.391 317.014C639.002 317.004 638.627 317.111 638.314 317.323C638.001 317.534 637.763 317.841 637.632 318.203C637.5 318.565 637.481 318.966 637.576 319.356L639.083 325.897L632.953 326.94C632.703 326.983 632.467 327.076 632.259 327.214C632.05 327.352 631.874 327.532 631.739 327.745C631.604 327.957 631.514 328.198 631.473 328.452C631.432 328.707 631.442 328.971 631.501 329.229C631.56 329.486 631.668 329.733 631.819 329.955C631.97 330.177 632.16 330.37 632.379 330.522C632.597 330.675 632.841 330.784 633.095 330.843C633.348 330.902 633.608 330.911 633.858 330.868L639.988 329.825L641.491 336.371C641.611 336.892 641.926 337.357 642.368 337.665C642.81 337.972 643.343 338.097 643.848 338.011C644.353 337.925 644.789 337.635 645.062 337.206C645.334 336.777 645.42 336.243 645.3 335.722L643.796 329.176L649.926 328.133C650.311 328.073 650.662 327.895 650.931 327.622C651.201 327.349 651.377 326.993 651.437 326.601C651.496 326.21 651.437 325.801 651.266 325.428C651.094 325.055 650.82 324.736 650.477 324.512C650.037 324.223 649.514 324.113 649.021 324.205L642.891 325.248L641.385 318.707C641.328 318.443 641.219 318.19 641.067 317.962C640.914 317.735 640.72 317.537 640.495 317.383L640.496 317.383ZM585.271 281.359C586.698 282.352 587.802 283.939 588.21 285.529C588.619 287.119 588.378 288.825 587.59 290.068C586.801 291.311 585.389 292.209 583.831 292.431C582.272 292.652 580.451 292.197 579.024 291.204C577.596 290.211 576.489 288.629 576.08 287.039C575.672 285.449 575.916 283.738 576.704 282.495C577.494 281.251 578.902 280.358 580.46 280.137C582.019 279.916 583.843 280.366 585.271 281.359L585.271 281.359ZM615.087 302.104C616.514 303.097 617.618 304.684 618.027 306.275C618.435 307.865 618.195 309.571 617.406 310.814C616.617 312.057 615.205 312.955 613.647 313.177C612.088 313.398 610.267 312.943 608.84 311.95C607.413 310.957 606.305 309.375 605.897 307.785C605.488 306.194 605.732 304.484 606.521 303.241C607.31 301.997 608.718 301.104 610.276 300.883C611.835 300.661 613.66 301.112 615.087 302.105L615.087 302.104ZM587.875 314.308L614.359 332.735L598.041 358.449L571.557 340.022L587.875 314.308ZM628.016 348.69C625.724 347.095 622.962 346.386 620.354 346.757C617.746 347.128 615.454 348.564 614.07 350.746C612.685 352.928 612.308 355.697 612.992 358.358C613.676 361.02 615.367 363.416 617.659 365.011C619.951 366.606 622.716 367.309 625.324 366.939C627.932 366.568 630.224 365.131 631.608 362.949C632.993 360.767 633.37 357.999 632.686 355.337C632.002 352.676 630.308 350.285 628.016 348.69L628.016 348.69ZM592.424 326.189C592.093 325.958 591.708 325.829 591.319 325.817C590.93 325.805 590.554 325.912 590.24 326.123C589.926 326.335 589.688 326.641 589.556 327.004C589.424 327.366 589.405 327.768 589.5 328.158L591.006 334.699L584.876 335.742C584.625 335.783 584.387 335.875 584.177 336.012C583.967 336.15 583.788 336.33 583.652 336.543C583.516 336.756 583.424 336.997 583.383 337.253C583.341 337.509 583.351 337.774 583.41 338.033C583.47 338.292 583.579 338.54 583.73 338.763C583.882 338.986 584.074 339.179 584.294 339.331C584.514 339.483 584.759 339.591 585.014 339.65C585.27 339.708 585.53 339.715 585.781 339.67L591.911 338.627L593.417 345.168C593.476 345.425 593.585 345.673 593.735 345.895C593.886 346.117 594.076 346.309 594.295 346.461C594.514 346.614 594.757 346.723 595.011 346.782C595.264 346.841 595.524 346.85 595.774 346.807C596.024 346.765 596.26 346.672 596.468 346.534C596.677 346.396 596.853 346.215 596.988 346.003C597.123 345.79 597.213 345.55 597.254 345.295C597.295 345.041 597.285 344.777 597.226 344.519L595.72 337.978L601.849 336.935C602.235 336.875 602.585 336.697 602.855 336.424C603.124 336.151 603.301 335.795 603.36 335.403C603.42 335.012 603.36 334.603 603.189 334.23C603.018 333.857 602.743 333.538 602.401 333.314C601.96 333.025 601.438 332.915 600.945 333.007L594.815 334.05L593.308 327.509C593.251 327.246 593.144 326.994 592.992 326.767C592.84 326.54 592.647 326.343 592.424 326.188L592.424 326.189ZM625.963 351.925C627.39 352.918 628.497 354.5 628.906 356.09C629.315 357.681 629.071 359.391 628.282 360.635C627.493 361.878 626.084 362.771 624.526 362.992C622.967 363.214 621.143 362.763 619.715 361.77C618.288 360.777 617.185 359.19 616.776 357.6C616.367 356.009 616.607 354.304 617.396 353.06C618.185 351.817 619.597 350.919 621.156 350.698C622.714 350.476 624.536 350.932 625.963 351.925L625.963 351.925ZM579.946 357.481C577.654 355.886 574.892 355.178 572.284 355.548C569.676 355.919 567.384 357.356 566 359.538C564.615 361.719 564.235 364.493 564.919 367.155C565.603 369.816 567.293 372.213 569.586 373.808C571.878 375.403 574.642 376.106 577.251 375.735C579.859 375.365 582.154 373.923 583.539 371.741C584.923 369.559 585.3 366.79 584.616 364.129C583.932 361.467 582.238 359.076 579.946 357.481ZM544.014 334.743C543.683 334.513 543.298 334.383 542.909 334.371C542.519 334.36 542.144 334.467 541.83 334.678C541.516 334.89 541.278 335.196 541.146 335.559C541.014 335.921 540.994 336.323 541.09 336.713L542.593 343.259L536.463 344.303C536.21 344.342 535.971 344.433 535.759 344.57C535.547 344.707 535.367 344.887 535.23 345.1C535.092 345.314 534.999 345.556 534.957 345.812C534.915 346.069 534.924 346.335 534.984 346.596C535.044 346.856 535.154 347.105 535.306 347.329C535.459 347.552 535.652 347.746 535.874 347.898C536.096 348.05 536.342 348.158 536.599 348.215C536.855 348.272 537.117 348.277 537.368 348.231L543.498 347.187L545.004 353.728C545.062 353.987 545.169 354.236 545.319 354.46C545.469 354.684 545.659 354.878 545.879 355.032C546.098 355.185 546.342 355.296 546.597 355.356C546.852 355.416 547.113 355.425 547.364 355.382C547.615 355.339 547.852 355.246 548.061 355.106C548.27 354.967 548.447 354.786 548.582 354.572C548.717 354.358 548.806 354.115 548.846 353.859C548.886 353.603 548.874 353.338 548.813 353.079L547.306 346.538L553.436 345.495C553.822 345.435 554.172 345.257 554.442 344.984C554.712 344.711 554.888 344.355 554.947 343.963C555.007 343.572 554.947 343.163 554.776 342.79C554.605 342.417 554.33 342.098 553.988 341.874C553.547 341.585 553.025 341.475 552.532 341.567L546.402 342.61L544.899 336.064C544.842 335.801 544.734 335.549 544.582 335.322C544.43 335.095 544.237 334.898 544.014 334.743L544.014 334.743ZM577.89 360.722C579.317 361.715 580.424 363.296 580.833 364.887C581.241 366.477 581.001 368.182 580.212 369.426C579.423 370.669 578.011 371.567 576.453 371.789C574.894 372.01 573.073 371.555 571.646 370.562C570.219 369.569 569.112 367.987 568.703 366.396C568.294 364.806 568.538 363.095 569.327 361.852C570.116 360.609 571.524 359.716 573.083 359.494C574.641 359.273 576.463 359.729 577.89 360.722L577.89 360.722Z" fill="black"/>
<g opacity="0.7">
<path d="M138.279 329.867C136.539 329.867 134.957 330.672 133.376 331.209L133.218 331.075C132.744 330.672 131.479 329.867 130.846 329.195C130.846 329.061 130.846 328.927 130.688 328.792C130.53 328.524 130.213 328.389 129.897 328.121C129.106 327.718 128.157 328.121 127.841 328.792C127.208 330.001 128.632 331.478 129.897 332.552C128.79 332.955 127.841 333.492 126.734 334.029C125.469 334.701 126.259 336.715 127.841 336.312C129.264 335.775 130.688 335.372 131.953 334.835C133.218 336.178 134.483 337.789 136.064 338.326C137.33 338.863 139.069 338.058 138.437 336.715C137.962 335.506 136.697 334.432 135.59 333.492C136.855 333.224 137.962 332.821 138.911 332.149C140.493 331.478 139.544 330.001 138.279 329.867Z" fill="black"/>
<path d="M138.279 360.885C137.014 360.348 135.116 360.616 134.483 361.691C134.009 362.63 133.534 363.57 132.902 364.511C131.953 363.839 131.162 363.168 130.214 362.496C127.525 360.616 123.729 363.705 126.418 365.719C127.525 366.659 128.632 367.464 129.739 368.27C130.53 368.942 131.163 369.479 131.953 370.15C133.06 371.224 135.591 371.09 136.381 369.613C136.539 369.344 136.539 369.21 136.698 368.942C137.963 367.599 138.754 365.316 139.386 363.839C140.018 363.033 139.702 361.691 138.279 360.885Z" fill="black"/>
<path d="M124.52 310.665C126.102 310.128 127.683 309.456 129.264 308.785C130.529 310.128 131.795 312.276 133.85 312.813C134.641 313.082 135.748 312.41 135.59 311.605C135.274 309.859 133.692 308.65 132.269 307.442C133.692 306.905 135.116 306.368 136.064 305.562C137.171 304.622 136.064 303.414 134.641 303.548C132.902 303.816 131.478 304.622 129.897 305.428C129.106 304.756 128.315 304.085 127.525 303.414C127.525 303.414 127.525 303.279 127.366 303.279C127.05 303.145 126.892 302.877 126.576 302.608C125.627 301.668 123.729 302.877 124.52 303.951C125.311 304.891 126.101 305.965 127.05 306.905C125.627 307.576 124.203 308.248 123.096 309.188C122.78 309.725 123.571 310.933 124.52 310.665Z" fill="black"/>
<path d="M95.5793 357.125C94.6304 357.797 93.8397 358.737 93.9979 359.676V359.811C93.6816 359.542 93.3653 359.273 93.049 359.005C90.6768 357.125 87.8302 359.542 89.0953 361.691C90.0442 363.302 91.7838 364.913 93.3653 366.256C94.7886 367.599 97.6352 366.928 97.9515 365.182C98.4262 363.302 99.2167 361.691 100.324 360.079C101.747 357.662 97.9513 355.245 95.5793 357.125Z" fill="black"/>
<path d="M94.3142 330.672C93.8397 331.344 93.5234 332.149 93.049 332.821C92.5746 332.284 92.1001 331.881 91.4675 331.344C89.4116 329.464 85.458 332.015 87.1976 334.163C88.779 336.178 90.3605 338.326 92.8908 339.266C93.3653 339.4 93.6816 339.4 93.9979 339.4C94.9467 339.535 95.8956 339.132 96.5282 338.192C97.6352 336.312 98.5841 334.432 99.3748 332.418C100.324 330.001 95.7372 328.255 94.3142 330.672Z" fill="black"/>
<path d="M85.458 313.35C86.7231 312.813 87.9883 312.008 89.2535 311.336C90.3605 312.545 91.7838 314.022 93.3653 314.425C94.4723 314.693 95.263 313.887 95.1049 312.947C94.7886 311.739 93.3653 310.665 92.1001 309.725C93.6816 308.919 95.263 308.113 96.3701 306.905C97.1608 305.965 95.8956 304.622 94.4723 304.891C92.5746 305.428 90.9931 306.771 89.5698 307.711C88.3046 306.636 87.0394 305.562 85.458 304.891C84.351 304.488 83.4021 305.294 83.8765 306.234C84.5091 307.442 85.7743 308.516 86.8813 309.456C85.7743 310.128 84.6673 310.933 83.7184 311.739C82.9276 312.41 84.1928 313.887 85.458 313.35Z" fill="black"/>
<path d="M71.0667 358.199C69.1689 358.602 67.4293 359.542 65.6897 360.482C65.5316 360.348 65.5316 360.348 65.3734 360.213C65.0571 359.811 64.5827 359.408 64.1083 359.139C63.9501 358.87 63.3175 357.931 63.1594 358.468C63.1594 358.334 63.1594 358.065 63.0012 357.931C62.3687 357.259 61.4198 357.259 60.7872 357.931C59.6802 359.273 61.4198 361.019 62.6849 362.228C61.4198 362.899 60.3128 363.839 59.6802 364.779C59.3639 365.316 59.8383 365.853 60.4709 365.719C61.8942 365.45 63.1594 364.645 64.2664 363.973C65.6897 365.584 67.5875 367.733 69.8015 368.002C70.9085 368.136 71.6993 367.464 71.5411 366.525C71.2248 364.779 69.0108 363.57 67.5875 362.362C69.0108 361.69 70.5923 361.153 72.0156 360.213C73.1223 359.542 72.49 357.797 71.0667 358.199Z" fill="black"/>
<path d="M63.4754 341.683C63.6336 342.22 64.2661 342.489 64.8987 342.623C66.4802 342.892 67.5872 341.818 67.4291 340.475C67.1128 338.863 64.2661 337.655 62.8428 336.715C65.0569 335.506 67.4291 334.566 69.3268 332.955C70.4338 332.149 69.3268 330.672 67.9035 330.941C65.215 331.612 62.5265 332.955 59.9962 334.432C59.2055 333.895 58.4147 333.358 57.624 332.955C56.517 332.418 55.0937 333.492 55.7263 334.432C56.2007 335.103 56.6751 335.641 57.1496 336.178C55.8844 336.983 54.7774 337.923 53.8285 338.729C52.8796 339.4 53.6704 340.877 54.7774 340.743C55.2518 340.743 55.5681 340.743 56.0426 340.609C56.6751 340.609 57.1496 340.072 57.1496 339.669C57.9403 339.266 58.731 338.729 59.6799 338.327C60.9451 339.266 62.2102 340.206 63.4754 341.28C63.4754 341.415 63.4754 341.549 63.4754 341.683Z" fill="black"/>
<path d="M52.7217 309.725C54.3032 311.068 55.8847 312.276 57.4661 313.619C58.8894 314.962 61.7361 314.29 62.2105 312.545C62.2105 312.41 62.2105 312.41 62.2105 312.276C62.6849 312.007 63.0012 311.605 63.1594 311.068L64.4246 306.368C65.3734 303.279 60.3128 302.339 59.0476 305.025C58.7313 305.831 58.415 306.636 58.0987 307.442C57.6243 307.039 57.1498 306.636 56.6754 306.368C53.6704 304.488 50.3493 307.711 52.7217 309.725Z" fill="black"/>
<path d="M151.405 333.358C151.563 320.064 153.303 306.636 150.298 293.477C150.14 292.671 149.033 292 147.926 292C131.004 292.134 114.082 292.134 97.0026 292.269C80.3973 292.269 63.0012 291.329 46.3959 293.074C46.0796 293.074 45.7633 293.209 45.6052 293.343C44.6563 293.611 44.0237 294.148 43.8656 295.088C42.7586 309.053 42.9167 323.153 43.233 337.118C43.5493 350.545 43.7074 363.973 46.7122 377.133C46.8703 378.072 47.9774 378.61 49.0844 378.61C66.7968 379.281 84.5091 378.207 102.221 378.072C110.761 378.072 119.459 378.207 127.999 379.012C131.795 379.281 135.748 380.221 139.544 379.952C143.339 379.684 146.661 378.207 150.614 378.475C151.879 378.475 153.144 377.535 152.987 376.461C151.721 362.228 151.405 347.726 151.405 333.358ZM113.133 323.958C124.204 323.958 135.116 324.093 146.186 324.361C146.502 324.361 146.818 324.227 146.977 324.093C146.819 328.121 146.66 332.015 146.66 335.909C146.66 339.132 146.66 342.22 146.66 345.443C135.59 345.309 124.678 345.577 113.608 345.98C113.45 338.729 113.292 331.344 113.133 323.958ZM147.135 322.615C146.977 322.481 146.66 322.213 146.344 322.213C135.432 321.541 124.362 321.138 113.133 321.004C112.817 312.813 112.342 304.488 111.868 296.297C123.254 296.297 134.641 296.163 146.186 296.163C147.768 304.756 147.451 313.753 147.135 322.615ZM110.761 296.297C110.287 304.488 109.971 312.813 109.971 321.138C99.3746 321.138 88.6206 321.273 78.0249 321.81C77.5504 313.485 77.076 305.159 76.1271 296.834C83.2437 296.7 90.3603 296.565 97.3187 296.431C101.747 296.297 106.175 296.297 110.761 296.297ZM78.0251 324.227C88.6209 324.093 99.2167 323.958 109.812 323.958C109.812 331.344 110.129 338.863 110.287 346.248C106.65 346.383 102.854 346.517 99.2167 346.785C92.4164 347.054 85.6161 347.323 78.8159 347.726C78.8159 339.803 78.4993 332.015 78.0251 324.227ZM48.2934 296.028C56.9914 296.7 65.6895 296.834 74.5457 296.7C74.3875 305.025 74.3875 313.485 74.5457 321.81C65.3732 322.347 56.3589 323.018 47.3445 323.958C47.3445 314.693 47.5029 305.428 48.2934 296.028ZM47.6611 334.701C47.6611 331.478 47.5029 328.121 47.5029 324.898C56.5173 324.63 65.6897 324.495 74.7041 324.227C74.8622 332.015 75.3366 339.937 75.6529 347.726C73.2807 347.86 70.9085 347.994 68.6945 348.263C65.8479 348.397 63.0012 348.666 60.3128 348.8C56.201 348.934 52.2473 348.934 48.1355 349.471C47.819 344.503 47.6611 339.669 47.6611 334.701ZM50.9821 374.716C49.2425 367.061 48.61 359.408 48.1355 351.62C52.2473 351.754 56.201 351.217 60.3128 350.814C61.1035 350.679 61.7361 350.679 62.5268 350.679C64.1083 350.679 65.6897 350.545 67.4293 350.545C68.0619 350.545 68.6945 350.545 69.3271 350.411C71.5411 350.277 73.597 350.277 75.8111 350.143C76.2855 358.334 76.76 366.525 77.2344 374.716C68.378 374.85 59.6802 374.984 50.9821 374.716ZM79.4484 374.581C79.2903 366.39 79.1321 358.2 78.974 350.009C86.2487 349.606 93.5234 349.203 100.956 349.068C104.119 348.934 107.44 348.934 110.603 348.8C110.92 357.259 111.394 365.719 111.868 374.179C111.868 374.313 111.868 374.313 111.868 374.447C108.547 374.179 105.384 374.179 102.063 374.179C94.472 374.179 87.0394 374.447 79.4484 374.581ZM141.916 375.655C137.646 376.327 133.534 375.79 129.264 375.387C124.204 374.85 119.143 374.581 114.082 374.447C114.082 374.313 114.082 374.313 114.082 374.179C113.766 365.719 113.766 357.259 113.608 348.8C124.678 348.666 135.748 348.531 146.66 348.128C146.818 356.991 147.135 365.853 147.609 374.716C145.87 374.85 143.972 375.253 141.916 375.655Z" fill="black"/>
</g>
<path d="M60.737 43.7595L61.9763 43.044L95.475 101.066L94.2358 101.781L60.737 43.7595ZM86.019 29.163L87.1348 28.5187L120.635 86.5424L119.519 87.1867L86.019 29.163ZM66.1741 94.1387L128.528 58.1387L128.972 58.9072L66.6178 94.9072L66.1741 94.1387ZM52.8707 71.0966L115.225 35.0966L115.668 35.8652L53.3145 71.8652L52.8707 71.0966ZM108.814 27.9347L108.534 28.859L95.4548 25.8943L95.7347 24.97L108.814 27.9347ZM100.591 33.4244L99.6512 33.2011L103.684 20.4041L104.623 20.6274L100.591 33.4244ZM97.5495 65.95L97.2696 66.8743L84.1894 63.9074L84.4693 62.9831L97.5495 65.95ZM89.3252 71.4433L88.3859 71.22L92.4187 58.423L93.358 58.6463L89.3252 71.4433ZM86.1222 104.28L85.8423 105.205L72.7621 102.238L73.042 101.314L86.1222 104.28ZM77.8956 109.775L76.9563 109.552L80.989 96.7547L81.9283 96.9781L77.8956 109.775ZM74.184 35.9959C70.8698 37.9094 69.5528 41.8294 71.2411 44.7536C72.9294 47.6778 76.9827 48.4973 80.297 46.5838C83.6112 44.6703 84.9282 40.7502 83.2399 37.8261C81.5516 34.9019 77.4983 34.0824 74.184 35.9959ZM79.8328 45.7799C77.0219 47.4028 73.5824 46.7088 72.1491 44.2264C70.7159 41.744 71.8347 38.4183 74.6456 36.7954C77.4566 35.1725 80.8961 35.8664 82.3293 38.3489C83.7626 40.8313 82.6438 44.157 79.8328 45.7799ZM48.9994 50.5362C45.6851 52.4497 44.3682 56.3698 46.0565 59.294C47.7447 62.2181 51.7981 63.0377 55.1123 61.1242C58.4266 59.2107 59.7435 55.2906 58.0553 52.3665C56.367 49.4423 52.3137 48.6228 48.9994 50.5362ZM54.6482 60.3202C51.8372 61.9431 48.3977 61.2492 46.9645 58.7668C45.5312 56.2843 46.65 52.9587 49.461 51.3358C52.2719 49.7128 55.7115 50.4068 57.1447 52.8892C58.5779 55.3717 57.4591 58.6973 54.6482 60.3202ZM112.726 45.2554C109.412 47.1688 108.095 51.0889 109.784 54.0131C111.472 56.9372 115.525 57.7568 118.839 55.8433C122.154 53.9298 123.471 50.0097 121.782 47.0856C120.094 44.1614 116.041 43.3419 112.726 45.2554ZM118.377 55.0416C115.566 56.6645 112.126 55.9705 110.693 53.4881C109.26 51.0056 110.378 47.68 113.189 46.0571C116 44.4342 119.44 45.1281 120.873 47.6105C122.306 50.093 121.188 53.4186 118.377 55.0416ZM101.446 83.5007C98.1321 85.4142 96.8152 89.3343 98.5034 92.2585C100.192 95.1826 104.245 96.0022 107.559 94.0887C110.874 92.1752 112.19 88.2551 110.502 85.331C108.814 82.4068 104.761 81.5872 101.446 83.5007ZM107.096 93.2869C104.285 94.9099 100.846 94.2159 99.4127 91.7335C97.9795 89.251 99.0983 85.9254 101.909 84.3025C104.72 82.6796 108.16 83.3735 109.593 85.8559C111.026 88.3384 109.907 91.664 107.096 93.2869Z" fill="black"/>
<g opacity="0.5" clip-path="url(#clip0_1_193)">
<g opacity="0.5">
<path d="M635.739 74.7018L636.03 72.128L609.376 69.1157L611.994 45.9517L609.225 45.6387L606.607 68.8027L581.683 65.986L584.301 42.822L581.532 42.509L578.914 65.673L552.606 62.6998L552.315 65.2736L578.623 68.2468L576.005 91.4108L549.697 88.4376L549.407 91.0114L575.714 93.9846L572.66 121.009L575.429 121.322L578.484 94.2976L603.407 97.1143L600.353 124.139L603.122 124.452L606.176 97.4273L632.83 100.44L633.121 97.8658L606.467 94.8535L609.085 71.6895L635.739 74.7018ZM603.698 94.5405L578.775 91.7238L581.392 68.5598L606.316 71.3765L603.698 94.5405Z" fill="black"/>
</g>
<path d="M593.736 72.5615C588.392 71.9574 583.587 75.507 583.026 80.4743C582.464 85.4416 586.356 89.9739 591.7 90.5779C597.045 91.1819 601.849 87.6324 602.411 82.6651C602.972 77.6978 599.081 73.1655 593.736 72.5615ZM591.991 88.0041C588.174 87.5727 585.394 84.3351 585.795 80.7872C586.196 77.2394 589.628 74.7038 593.445 75.1353C597.263 75.5667 600.042 78.8043 599.641 82.3521C599.24 85.8999 595.808 88.4355 591.991 88.0041Z" fill="black"/>
<path d="M596.645 46.8237C591.3 46.2196 586.496 49.7692 585.935 54.7365C585.373 59.7038 589.264 64.2361 594.609 64.8401C599.953 65.4441 604.758 61.8946 605.319 56.9273C605.881 51.96 601.99 47.4277 596.645 46.8237ZM594.9 62.2663C591.082 61.8349 588.303 58.5973 588.704 55.0495C589.105 51.5016 592.537 48.966 596.354 49.3975C600.172 49.8289 602.951 53.0665 602.55 56.6143C602.149 60.1621 598.717 62.6977 594.9 62.2663Z" fill="black"/>
<path d="M621.429 75.6912C616.084 75.0871 611.28 78.6367 610.718 83.604C610.157 88.5713 614.048 93.1036 619.393 93.7076C624.737 94.3116 629.542 90.7621 630.103 85.7948C630.665 80.8275 626.773 76.2952 621.429 75.6912ZM619.684 91.1338C615.866 90.7024 613.087 87.4648 613.488 83.9169C613.889 80.3691 617.32 77.8335 621.138 78.265C624.955 78.6964 627.735 81.934 627.334 85.4818C626.933 89.0296 623.501 91.5652 619.684 91.1338Z" fill="black"/>
<path d="M563.135 95.1696C557.79 94.5655 552.986 98.1151 552.424 103.082C551.863 108.05 555.754 112.582 561.099 113.186C566.443 113.79 571.248 110.24 571.809 105.273C572.371 100.306 568.479 95.7736 563.135 95.1696ZM561.39 110.612C557.572 110.181 554.793 106.943 555.194 103.395C555.595 99.8475 559.027 97.3119 562.844 97.7434C566.661 98.1748 569.441 101.412 569.04 104.96C568.639 108.508 565.207 111.044 561.39 110.612Z" fill="black"/>
<path d="M566.984 78.6612L575.082 72.6782C575.68 72.2366 575.772 71.422 575.288 70.8581C574.804 70.2946 573.927 70.1955 573.33 70.6369L565.231 76.62L558.672 68.9803C558.189 68.4168 557.311 68.3177 556.714 68.759C556.117 69.2006 556.025 70.0152 556.509 70.5791L563.068 78.2187L554.969 84.2017C554.371 84.6433 554.279 85.4579 554.763 86.0217C555.005 86.3034 555.346 86.4692 555.7 86.5092C556.054 86.5493 556.423 86.4636 556.721 86.243L564.82 80.2598L571.379 87.8995C571.62 88.1812 571.961 88.347 572.315 88.387C572.669 88.4271 573.038 88.3414 573.337 88.1208C573.934 87.6792 574.026 86.8646 573.542 86.3007L566.984 78.6612Z" fill="black"/>
<path d="M569.892 52.9234L577.991 46.9404C578.589 46.4988 578.681 45.6842 578.197 45.1203C577.713 44.5569 576.836 44.4577 576.239 44.8991L568.14 50.8822L561.581 43.2425C561.098 42.679 560.22 42.5799 559.623 43.0212C559.025 43.4629 558.933 44.2774 559.417 44.8413L565.976 52.4809L557.878 58.4639C557.28 58.9055 557.188 59.7201 557.672 60.2839C557.914 60.5656 558.254 60.7314 558.608 60.7714C558.963 60.8115 559.332 60.7258 559.63 60.5052L567.729 54.522L574.288 62.1617C574.529 62.4434 574.87 62.6092 575.224 62.6492C575.578 62.6893 575.947 62.6036 576.245 62.383C576.843 61.9414 576.935 61.1268 576.451 60.5629L569.892 52.9234Z" fill="black"/>
<path d="M625.278 59.1828L633.376 53.1998C633.974 52.7582 634.066 51.9436 633.582 51.3797C633.098 50.8163 632.221 50.7171 631.624 51.1585L623.525 57.1416L616.966 49.5019C616.483 48.9384 615.605 48.8393 615.008 49.2806C614.411 49.7223 614.319 50.5368 614.803 51.1007L621.362 58.7403L613.263 64.7233C612.665 65.1649 612.573 65.9795 613.057 66.5433C613.299 66.825 613.639 66.9908 613.994 67.0308C614.348 67.0709 614.717 66.9852 615.015 66.7646L623.114 60.7814L629.673 68.4211C629.914 68.7028 630.255 68.8686 630.609 68.9086C630.963 68.9487 631.332 68.863 631.63 68.6424C632.228 68.2008 632.32 67.3862 631.836 66.8223L625.278 59.1828Z" fill="black"/>
<path d="M619.46 110.658L627.559 104.675C628.156 104.234 628.248 103.419 627.764 102.855C627.281 102.292 626.403 102.193 625.806 102.634L617.708 108.617L611.149 100.978C610.665 100.414 609.788 100.315 609.191 100.756C608.593 101.198 608.501 102.012 608.985 102.576L615.544 110.216L607.445 116.199C606.848 116.641 606.756 117.455 607.24 118.019C607.481 118.301 607.822 118.466 608.176 118.506C608.53 118.547 608.899 118.461 609.198 118.24L617.296 112.257L623.855 119.897C624.097 120.178 624.437 120.344 624.791 120.384C625.146 120.424 625.514 120.339 625.813 120.118C626.411 119.676 626.503 118.862 626.019 118.298L619.46 110.658Z" fill="black"/>
<path d="M591.767 107.529L599.866 101.546C600.464 101.104 600.556 100.29 600.072 99.7257C599.588 99.1622 598.711 99.063 598.114 99.5044L590.015 105.488L583.456 97.8479C582.973 97.2844 582.095 97.1852 581.498 97.6266C580.9 98.0682 580.808 98.8828 581.292 99.4467L587.851 107.086L579.753 113.069C579.155 113.511 579.063 114.325 579.547 114.889C579.789 115.171 580.129 115.337 580.484 115.377C580.838 115.417 581.207 115.331 581.505 115.111L589.604 109.127L596.163 116.767C596.404 117.049 596.745 117.214 597.099 117.254C597.453 117.294 597.822 117.209 598.121 116.988C598.718 116.547 598.81 115.732 598.326 115.168L591.767 107.529Z" fill="black"/>
</g>
</g>
<defs>
<clipPath id="clip0_1_193">
<rect width="85" height="79" fill="white" transform="translate(554.705 39.4771) rotate(6.44799)"/>
</clipPath>
</defs>
</svg>
