<svg width="608" height="143" viewBox="0 0 608 143" fill="none" xmlns="http://www.w3.org/2000/svg">
<path d="M167.761 130.364V103.364H170.676V106.483H171.034C171.256 106.142 171.563 105.707 171.955 105.179C172.355 104.642 172.926 104.165 173.668 103.747C174.418 103.321 175.432 103.108 176.71 103.108C178.364 103.108 179.821 103.521 181.082 104.348C182.344 105.175 183.328 106.347 184.036 107.864C184.743 109.381 185.097 111.17 185.097 113.233C185.097 115.312 184.743 117.115 184.036 118.641C183.328 120.158 182.348 121.334 181.095 122.169C179.842 122.996 178.398 123.409 176.761 123.409C175.5 123.409 174.49 123.2 173.732 122.783C172.973 122.357 172.389 121.875 171.98 121.338C171.571 120.793 171.256 120.341 171.034 119.983H170.778V130.364H167.761ZM170.727 113.182C170.727 114.665 170.945 115.973 171.379 117.107C171.814 118.232 172.449 119.114 173.284 119.753C174.119 120.384 175.142 120.699 176.352 120.699C177.614 120.699 178.666 120.366 179.51 119.702C180.362 119.028 181.001 118.125 181.428 116.991C181.862 115.849 182.08 114.58 182.08 113.182C182.08 111.801 181.866 110.557 181.44 109.449C181.023 108.332 180.388 107.45 179.536 106.803C178.692 106.146 177.631 105.818 176.352 105.818C175.125 105.818 174.094 106.129 173.259 106.751C172.423 107.365 171.793 108.226 171.366 109.334C170.94 110.433 170.727 111.716 170.727 113.182ZM192.716 96.8182V123H189.699V96.8182H192.716ZM204.02 123.46C202.776 123.46 201.647 123.226 200.632 122.757C199.618 122.28 198.813 121.594 198.216 120.699C197.62 119.795 197.321 118.705 197.321 117.426C197.321 116.301 197.543 115.389 197.986 114.69C198.429 113.983 199.022 113.429 199.763 113.028C200.505 112.628 201.323 112.33 202.218 112.134C203.121 111.929 204.029 111.767 204.941 111.648C206.134 111.494 207.101 111.379 207.843 111.303C208.593 111.217 209.138 111.077 209.479 110.881C209.828 110.685 210.003 110.344 210.003 109.858V109.756C210.003 108.494 209.658 107.514 208.968 106.815C208.286 106.116 207.25 105.767 205.861 105.767C204.421 105.767 203.292 106.082 202.473 106.713C201.655 107.344 201.08 108.017 200.748 108.733L197.884 107.71C198.395 106.517 199.077 105.588 199.929 104.923C200.79 104.25 201.728 103.781 202.742 103.517C203.765 103.244 204.77 103.108 205.759 103.108C206.39 103.108 207.114 103.185 207.932 103.338C208.759 103.483 209.556 103.786 210.323 104.246C211.098 104.706 211.742 105.401 212.253 106.33C212.765 107.259 213.02 108.503 213.02 110.062V123H210.003V120.341H209.85C209.645 120.767 209.304 121.223 208.827 121.709C208.35 122.195 207.715 122.608 206.922 122.949C206.13 123.29 205.162 123.46 204.02 123.46ZM204.48 120.75C205.674 120.75 206.679 120.516 207.498 120.047C208.324 119.578 208.946 118.973 209.364 118.232C209.79 117.49 210.003 116.71 210.003 115.892V113.131C209.875 113.284 209.594 113.425 209.159 113.553C208.733 113.672 208.239 113.778 207.676 113.872C207.123 113.957 206.581 114.034 206.053 114.102C205.533 114.162 205.111 114.213 204.787 114.256C204.003 114.358 203.27 114.524 202.588 114.754C201.915 114.976 201.37 115.312 200.952 115.764C200.543 116.207 200.338 116.812 200.338 117.58C200.338 118.628 200.726 119.42 201.502 119.957C202.286 120.486 203.279 120.75 204.48 120.75ZM219.767 130.364C219.256 130.364 218.8 130.321 218.399 130.236C217.999 130.159 217.722 130.082 217.568 130.006L218.335 127.347C219.068 127.534 219.716 127.602 220.278 127.551C220.841 127.5 221.339 127.249 221.774 126.797C222.217 126.354 222.622 125.634 222.989 124.636L223.551 123.102L216.29 103.364H219.562L224.983 119.011H225.188L230.608 103.364H233.881L225.545 125.864C225.17 126.878 224.706 127.717 224.152 128.382C223.598 129.055 222.955 129.554 222.222 129.878C221.497 130.202 220.679 130.364 219.767 130.364ZM253.766 123.46C252.522 123.46 251.393 123.226 250.379 122.757C249.364 122.28 248.559 121.594 247.962 120.699C247.366 119.795 247.067 118.705 247.067 117.426C247.067 116.301 247.289 115.389 247.732 114.69C248.175 113.983 248.768 113.429 249.509 113.028C250.251 112.628 251.069 112.33 251.964 112.134C252.867 111.929 253.775 111.767 254.687 111.648C255.88 111.494 256.847 111.379 257.589 111.303C258.339 111.217 258.884 111.077 259.225 110.881C259.575 110.685 259.749 110.344 259.749 109.858V109.756C259.749 108.494 259.404 107.514 258.714 106.815C258.032 106.116 256.996 105.767 255.607 105.767C254.167 105.767 253.038 106.082 252.219 106.713C251.401 107.344 250.826 108.017 250.494 108.733L247.63 107.71C248.141 106.517 248.823 105.588 249.675 104.923C250.536 104.25 251.474 103.781 252.488 103.517C253.511 103.244 254.516 103.108 255.505 103.108C256.136 103.108 256.86 103.185 257.678 103.338C258.505 103.483 259.302 103.786 260.069 104.246C260.844 104.706 261.488 105.401 261.999 106.33C262.511 107.259 262.766 108.503 262.766 110.062V123H259.749V120.341H259.596C259.391 120.767 259.05 121.223 258.573 121.709C258.096 122.195 257.461 122.608 256.668 122.949C255.876 123.29 254.908 123.46 253.766 123.46ZM254.227 120.75C255.42 120.75 256.425 120.516 257.244 120.047C258.07 119.578 258.692 118.973 259.11 118.232C259.536 117.49 259.749 116.71 259.749 115.892V113.131C259.621 113.284 259.34 113.425 258.906 113.553C258.479 113.672 257.985 113.778 257.423 113.872C256.869 113.957 256.327 114.034 255.799 114.102C255.279 114.162 254.857 114.213 254.533 114.256C253.749 114.358 253.016 114.524 252.335 114.754C251.661 114.976 251.116 115.312 250.698 115.764C250.289 116.207 250.085 116.812 250.085 117.58C250.085 118.628 250.472 119.42 251.248 119.957C252.032 120.486 253.025 120.75 254.227 120.75ZM271.29 111.188V123H268.273V103.364H271.188V106.432H271.444C271.904 105.435 272.603 104.634 273.54 104.028C274.478 103.415 275.688 103.108 277.171 103.108C278.5 103.108 279.664 103.381 280.661 103.926C281.658 104.463 282.434 105.281 282.988 106.381C283.542 107.472 283.819 108.852 283.819 110.523V123H280.801V110.727C280.801 109.185 280.401 107.983 279.6 107.122C278.799 106.253 277.699 105.818 276.301 105.818C275.338 105.818 274.478 106.027 273.719 106.445C272.969 106.862 272.377 107.472 271.942 108.273C271.507 109.074 271.29 110.045 271.29 111.188ZM296.746 123.409C295.11 123.409 293.665 122.996 292.413 122.169C291.16 121.334 290.18 120.158 289.472 118.641C288.765 117.115 288.411 115.312 288.411 113.233C288.411 111.17 288.765 109.381 289.472 107.864C290.18 106.347 291.164 105.175 292.425 104.348C293.687 103.521 295.144 103.108 296.798 103.108C298.076 103.108 299.086 103.321 299.827 103.747C300.577 104.165 301.148 104.642 301.54 105.179C301.941 105.707 302.252 106.142 302.474 106.483H302.729V96.8182H305.746V123H302.832V119.983H302.474C302.252 120.341 301.937 120.793 301.528 121.338C301.119 121.875 300.535 122.357 299.776 122.783C299.018 123.2 298.008 123.409 296.746 123.409ZM297.156 120.699C298.366 120.699 299.388 120.384 300.224 119.753C301.059 119.114 301.694 118.232 302.129 117.107C302.563 115.973 302.781 114.665 302.781 113.182C302.781 111.716 302.567 110.433 302.141 109.334C301.715 108.226 301.085 107.365 300.249 106.751C299.414 106.129 298.383 105.818 297.156 105.818C295.877 105.818 294.812 106.146 293.96 106.803C293.116 107.45 292.481 108.332 292.055 109.449C291.637 110.557 291.428 111.801 291.428 113.182C291.428 114.58 291.641 115.849 292.067 116.991C292.502 118.125 293.141 119.028 293.985 119.702C294.837 120.366 295.894 120.699 297.156 120.699ZM326.265 123L320.282 103.364H323.452L327.697 118.398H327.901L332.094 103.364H335.316L339.458 118.347H339.663L343.907 103.364H347.077L341.094 123H338.129L333.833 107.915H333.526L329.231 123H326.265ZM351.066 123V103.364H354.083V123H351.066ZM352.6 100.091C352.012 100.091 351.505 99.8906 351.079 99.4901C350.661 99.0895 350.452 98.608 350.452 98.0455C350.452 97.483 350.661 97.0014 351.079 96.6009C351.505 96.2003 352.012 96 352.6 96C353.188 96 353.691 96.2003 354.109 96.6009C354.535 97.0014 354.748 97.483 354.748 98.0455C354.748 98.608 354.535 99.0895 354.109 99.4901C353.691 99.8906 353.188 100.091 352.6 100.091ZM362.626 111.188V123H359.609V103.364H362.524V106.432H362.779C363.24 105.435 363.939 104.634 364.876 104.028C365.814 103.415 367.024 103.108 368.507 103.108C369.836 103.108 371 103.381 371.997 103.926C372.994 104.463 373.77 105.281 374.324 106.381C374.877 107.472 375.154 108.852 375.154 110.523V123H372.137V110.727C372.137 109.185 371.737 107.983 370.936 107.122C370.135 106.253 369.035 105.818 367.637 105.818C366.674 105.818 365.814 106.027 365.055 106.445C364.305 106.862 363.713 107.472 363.278 108.273C362.843 109.074 362.626 110.045 362.626 111.188Z" fill="black"/>
<path fill-rule="evenodd" clip-rule="evenodd" d="M14.1395 13.6618C16.5478 11.335 20.4523 11.335 22.8605 13.6618L40.0833 30.3028L57.3062 13.6618C59.7144 11.335 63.619 11.335 66.0271 13.6618C68.4352 15.9887 68.4352 19.7613 66.0271 22.0882L48.8043 38.7292L66.0271 55.3701C68.4352 57.697 68.4352 61.4697 66.0271 63.7965C63.619 66.1232 59.7144 66.1232 57.3062 63.7965L40.0833 47.1555L22.8605 63.7965C20.4523 66.1232 16.5478 66.1232 14.1395 63.7965C11.7313 61.4697 11.7313 57.697 14.1395 55.3701L31.3624 38.7292L14.1395 22.0882C11.7313 19.7613 11.7313 15.9887 14.1395 13.6618ZM107.917 23.8333C99.4024 23.8333 92.5 30.5024 92.5 38.7292C92.5 46.9559 99.4024 53.625 107.917 53.625C116.431 53.625 123.333 46.9559 123.333 38.7292C123.333 30.5024 116.431 23.8333 107.917 23.8333ZM80.1667 38.7292C80.1667 23.921 92.5907 11.9167 107.917 11.9167C123.243 11.9167 135.667 23.921 135.667 38.7292C135.667 53.5373 123.243 65.5417 107.917 65.5417C92.5907 65.5417 80.1667 53.5373 80.1667 38.7292ZM40.0833 89.375C31.569 89.375 24.6667 96.0442 24.6667 104.271C24.6667 112.498 31.569 119.167 40.0833 119.167C48.5977 119.167 55.5 112.498 55.5 104.271C55.5 96.0442 48.5977 89.375 40.0833 89.375ZM12.3333 104.271C12.3333 89.4626 24.7575 77.4583 40.0833 77.4583C55.4092 77.4583 67.8333 89.4626 67.8333 104.271C67.8333 119.079 55.4092 131.083 40.0833 131.083C24.7575 131.083 12.3333 119.079 12.3333 104.271ZM81.9729 79.2035C84.381 76.8768 88.2857 76.8768 90.6938 79.2035L107.917 95.8446L125.14 79.2035C127.548 76.8768 131.452 76.8768 133.86 79.2035C136.269 81.5303 136.269 85.3031 133.86 87.6298L116.638 104.271L133.86 120.912C136.269 123.239 136.269 127.011 133.86 129.338C131.452 131.665 127.548 131.665 125.14 129.338L107.917 112.697L90.6938 129.338C88.2857 131.665 84.381 131.665 81.9729 129.338C79.5648 127.011 79.5648 123.239 81.9729 120.912L99.1958 104.271L81.9729 87.6298C79.5648 85.3031 79.5648 81.5303 81.9729 79.2035Z" fill="black"/>
<path d="M151.091 29.4545V24.4545H186V29.4545H171.364V71H165.727V29.4545H151.091ZM193.972 71V36.0909H199.335V71H193.972ZM196.699 30.2727C195.653 30.2727 194.752 29.9167 193.994 29.2045C193.252 28.4924 192.881 27.6364 192.881 26.6364C192.881 25.6364 193.252 24.7803 193.994 24.0682C194.752 23.3561 195.653 23 196.699 23C197.744 23 198.638 23.3561 199.381 24.0682C200.138 24.7803 200.517 25.6364 200.517 26.6364C200.517 27.6364 200.138 28.4924 199.381 29.2045C198.638 29.9167 197.744 30.2727 196.699 30.2727ZM223.341 71.7273C220.068 71.7273 217.25 70.9545 214.886 69.4091C212.523 67.8636 210.705 65.7348 209.432 63.0227C208.159 60.3106 207.523 57.2121 207.523 53.7273C207.523 50.1818 208.174 47.053 209.477 44.3409C210.795 41.6136 212.629 39.4848 214.977 37.9545C217.341 36.4091 220.098 35.6364 223.25 35.6364C225.705 35.6364 227.917 36.0909 229.886 37C231.856 37.9091 233.47 39.1818 234.727 40.8182C235.985 42.4545 236.765 44.3636 237.068 46.5455H231.705C231.295 44.9545 230.386 43.5455 228.977 42.3182C227.583 41.0758 225.705 40.4545 223.341 40.4545C221.25 40.4545 219.417 41 217.841 42.0909C216.28 43.1667 215.061 44.6894 214.182 46.6591C213.318 48.6136 212.886 50.9091 212.886 53.5455C212.886 56.2424 213.311 58.5909 214.159 60.5909C215.023 62.5909 216.235 64.1439 217.795 65.25C219.371 66.3561 221.22 66.9091 223.341 66.9091C224.735 66.9091 226 66.6667 227.136 66.1818C228.273 65.697 229.235 65 230.023 64.0909C230.811 63.1818 231.371 62.0909 231.705 60.8182H237.068C236.765 62.8788 236.015 64.7348 234.818 66.3864C233.636 68.0227 232.068 69.3258 230.114 70.2955C228.174 71.25 225.917 71.7273 223.341 71.7273ZM264.909 48.5455V53.5455H244.545V48.5455H264.909ZM267.778 29.4545V24.4545H302.688V29.4545H288.051V71H282.415V29.4545H267.778ZM316.182 71.8182C313.97 71.8182 311.962 71.4015 310.159 70.5682C308.356 69.7197 306.924 68.5 305.864 66.9091C304.803 65.303 304.273 63.3636 304.273 61.0909C304.273 59.0909 304.667 57.4697 305.455 56.2273C306.242 54.9697 307.295 53.9848 308.614 53.2727C309.932 52.5606 311.386 52.0303 312.977 51.6818C314.583 51.3182 316.197 51.0303 317.818 50.8182C319.939 50.5455 321.659 50.3409 322.977 50.2045C324.311 50.053 325.28 49.803 325.886 49.4545C326.508 49.1061 326.818 48.5 326.818 47.6364V47.4545C326.818 45.2121 326.205 43.4697 324.977 42.2273C323.765 40.9848 321.924 40.3636 319.455 40.3636C316.894 40.3636 314.886 40.9242 313.432 42.0455C311.977 43.1667 310.955 44.3636 310.364 45.6364L305.273 43.8182C306.182 41.697 307.394 40.0455 308.909 38.8636C310.439 37.6667 312.106 36.8333 313.909 36.3636C315.727 35.8788 317.515 35.6364 319.273 35.6364C320.394 35.6364 321.682 35.7727 323.136 36.0455C324.606 36.303 326.023 36.8409 327.386 37.6591C328.765 38.4773 329.909 39.7121 330.818 41.3636C331.727 43.0152 332.182 45.2273 332.182 48V71H326.818V66.2727H326.545C326.182 67.0303 325.576 67.8409 324.727 68.7045C323.879 69.5682 322.75 70.303 321.341 70.9091C319.932 71.5152 318.212 71.8182 316.182 71.8182ZM317 67C319.121 67 320.909 66.5833 322.364 65.75C323.833 64.9167 324.939 63.8409 325.682 62.5227C326.439 61.2045 326.818 59.8182 326.818 58.3636V53.4545C326.591 53.7273 326.091 53.9773 325.318 54.2045C324.561 54.4167 323.682 54.6061 322.682 54.7727C321.697 54.9242 320.735 55.0606 319.795 55.1818C318.871 55.2879 318.121 55.3788 317.545 55.4545C316.152 55.6364 314.848 55.9318 313.636 56.3409C312.439 56.7348 311.47 57.3333 310.727 58.1364C310 58.9242 309.636 60 309.636 61.3636C309.636 63.2273 310.326 64.6364 311.705 65.5909C313.098 66.5303 314.864 67 317 67ZM356.153 71.7273C352.881 71.7273 350.063 70.9545 347.699 69.4091C345.335 67.8636 343.517 65.7348 342.244 63.0227C340.972 60.3106 340.335 57.2121 340.335 53.7273C340.335 50.1818 340.987 47.053 342.29 44.3409C343.608 41.6136 345.441 39.4848 347.79 37.9545C350.153 36.4091 352.911 35.6364 356.062 35.6364C358.517 35.6364 360.729 36.0909 362.699 37C364.669 37.9091 366.282 39.1818 367.54 40.8182C368.797 42.4545 369.578 44.3636 369.881 46.5455H364.517C364.108 44.9545 363.199 43.5455 361.79 42.3182C360.396 41.0758 358.517 40.4545 356.153 40.4545C354.063 40.4545 352.229 41 350.653 42.0909C349.093 43.1667 347.873 44.6894 346.994 46.6591C346.131 48.6136 345.699 50.9091 345.699 53.5455C345.699 56.2424 346.123 58.5909 346.972 60.5909C347.835 62.5909 349.047 64.1439 350.608 65.25C352.184 66.3561 354.032 66.9091 356.153 66.9091C357.547 66.9091 358.812 66.6667 359.949 66.1818C361.085 65.697 362.047 65 362.835 64.0909C363.623 63.1818 364.184 62.0909 364.517 60.8182H369.881C369.578 62.8788 368.828 64.7348 367.631 66.3864C366.449 68.0227 364.881 69.3258 362.926 70.2955C360.987 71.25 358.729 71.7273 356.153 71.7273ZM397.722 48.5455V53.5455H377.358V48.5455H397.722ZM400.591 29.4545V24.4545H435.5V29.4545H420.864V71H415.227V29.4545H400.591ZM452.591 71.7273C449.439 71.7273 446.674 70.9773 444.295 69.4773C441.932 67.9773 440.083 65.8788 438.75 63.1818C437.432 60.4848 436.773 57.3333 436.773 53.7273C436.773 50.0909 437.432 46.9167 438.75 44.2045C440.083 41.4924 441.932 39.3864 444.295 37.8864C446.674 36.3864 449.439 35.6364 452.591 35.6364C455.742 35.6364 458.5 36.3864 460.864 37.8864C463.242 39.3864 465.091 41.4924 466.409 44.2045C467.742 46.9167 468.409 50.0909 468.409 53.7273C468.409 57.3333 467.742 60.4848 466.409 63.1818C465.091 65.8788 463.242 67.9773 460.864 69.4773C458.5 70.9773 455.742 71.7273 452.591 71.7273ZM452.591 66.9091C454.985 66.9091 456.955 66.2955 458.5 65.0682C460.045 63.8409 461.189 62.2273 461.932 60.2273C462.674 58.2273 463.045 56.0606 463.045 53.7273C463.045 51.3939 462.674 49.2197 461.932 47.2045C461.189 45.1894 460.045 43.5606 458.5 42.3182C456.955 41.0758 454.985 40.4545 452.591 40.4545C450.197 40.4545 448.227 41.0758 446.682 42.3182C445.136 43.5606 443.992 45.1894 443.25 47.2045C442.508 49.2197 442.136 51.3939 442.136 53.7273C442.136 56.0606 442.508 58.2273 443.25 60.2273C443.992 62.2273 445.136 63.8409 446.682 65.0682C448.227 66.2955 450.197 66.9091 452.591 66.9091ZM491.233 71.7273C487.869 71.7273 484.968 70.9848 482.528 69.5C480.104 68 478.233 65.9091 476.915 63.2273C475.612 60.5303 474.96 57.3939 474.96 53.8182C474.96 50.2424 475.612 47.0909 476.915 44.3636C478.233 41.6212 480.066 39.4848 482.415 37.9545C484.778 36.4091 487.536 35.6364 490.688 35.6364C492.506 35.6364 494.301 35.9394 496.074 36.5455C497.847 37.1515 499.46 38.1364 500.915 39.5C502.369 40.8485 503.528 42.6364 504.392 44.8636C505.256 47.0909 505.688 49.8333 505.688 53.0909V55.3636H478.778V50.7273H500.233C500.233 48.7576 499.839 47 499.051 45.4545C498.278 43.9091 497.172 42.6894 495.733 41.7955C494.309 40.9015 492.627 40.4545 490.688 40.4545C488.551 40.4545 486.703 40.9848 485.142 42.0455C483.597 43.0909 482.407 44.4545 481.574 46.1364C480.741 47.8182 480.324 49.6212 480.324 51.5455V54.6364C480.324 57.2727 480.778 59.5076 481.688 61.3409C482.612 63.1591 483.892 64.5455 485.528 65.5C487.165 66.4394 489.066 66.9091 491.233 66.9091C492.642 66.9091 493.915 66.7121 495.051 66.3182C496.203 65.9091 497.195 65.303 498.028 64.5C498.862 63.6818 499.506 62.6667 499.96 61.4545L505.142 62.9091C504.597 64.6667 503.68 66.2121 502.392 67.5455C501.104 68.8636 499.513 69.8939 497.619 70.6364C495.725 71.3636 493.597 71.7273 491.233 71.7273Z" fill="#060606"/>
</svg>
