<svg width="509" height="143" viewBox="0 0 509 143" fill="none" xmlns="http://www.w3.org/2000/svg">
<text fill="black" xml:space="preserve" style="white-space: pre" font-family="Inter" font-size="36" letter-spacing="0em"><tspan x="165" y="123.091">play and win</tspan></text>
<path fill-rule="evenodd" clip-rule="evenodd" d="M14.1395 13.6618C16.5478 11.335 20.4523 11.335 22.8605 13.6618L40.0833 30.3028L57.3062 13.6618C59.7144 11.335 63.619 11.335 66.0271 13.6618C68.4352 15.9887 68.4352 19.7613 66.0271 22.0882L48.8043 38.7292L66.0271 55.3701C68.4352 57.697 68.4352 61.4697 66.0271 63.7965C63.619 66.1232 59.7144 66.1232 57.3062 63.7965L40.0833 47.1555L22.8605 63.7965C20.4523 66.1232 16.5478 66.1232 14.1395 63.7965C11.7313 61.4697 11.7313 57.697 14.1395 55.3701L31.3624 38.7292L14.1395 22.0882C11.7313 19.7613 11.7313 15.9887 14.1395 13.6618ZM107.917 23.8333C99.4024 23.8333 92.5 30.5024 92.5 38.7292C92.5 46.9559 99.4024 53.625 107.917 53.625C116.431 53.625 123.333 46.9559 123.333 38.7292C123.333 30.5024 116.431 23.8333 107.917 23.8333ZM80.1667 38.7292C80.1667 23.921 92.5907 11.9167 107.917 11.9167C123.243 11.9167 135.667 23.921 135.667 38.7292C135.667 53.5373 123.243 65.5417 107.917 65.5417C92.5907 65.5417 80.1667 53.5373 80.1667 38.7292ZM40.0833 89.375C31.569 89.375 24.6667 96.0442 24.6667 104.271C24.6667 112.498 31.569 119.167 40.0833 119.167C48.5977 119.167 55.5 112.498 55.5 104.271C55.5 96.0442 48.5977 89.375 40.0833 89.375ZM12.3333 104.271C12.3333 89.4626 24.7575 77.4583 40.0833 77.4583C55.4092 77.4583 67.8333 89.4626 67.8333 104.271C67.8333 119.079 55.4092 131.083 40.0833 131.083C24.7575 131.083 12.3333 119.079 12.3333 104.271ZM81.9729 79.2035C84.381 76.8768 88.2857 76.8768 90.6938 79.2035L107.917 95.8446L125.14 79.2035C127.548 76.8768 131.452 76.8768 133.86 79.2035C136.269 81.5303 136.269 85.3031 133.86 87.6298L116.638 104.271L133.86 120.912C136.269 123.239 136.269 127.011 133.86 129.338C131.452 131.665 127.548 131.665 125.14 129.338L107.917 112.697L90.6938 129.338C88.2857 131.665 84.381 131.665 81.9729 129.338C79.5648 127.011 79.5648 123.239 81.9729 120.912L99.1958 104.271L81.9729 87.6298C79.5648 85.3031 79.5648 81.5303 81.9729 79.2035Z" fill="black"/>
<text fill="#060606" xml:space="preserve" style="white-space: pre" font-family="Inter" font-size="64" letter-spacing="0em"><tspan x="148" y="70.7727">Tic-Tac-Toe</tspan></text>
</svg>
